PathFileType	4	(X/Y/Z)	C:/Users/opensim2020/Desktop/walking_exp_matlab/subject02_walking08_straight_04.trc	
DataRate	CameraRate	NumFrames	NumMarkers	Units	OrigDataRate	OrigDataStartFrame	OrigNumFrames	
100.00	100.00	5	41	mm	100.00	3197	241	
Frame#	Time	LFHD			RFHD			LBHD			RBHD			C7			T10			CLAV			STRN			RBAK			LSHO			LUPA			LELB			LFRM			LWRA			LWRB			LFIN			RSHO			RUPA			RELB			RFRM			RWRA			RWRB			RFIN			LASI			RASI			LPSI			RPSI			LTHI			LKNE			LTIB			LANK			LHEE			LTOE			RTHI			RKNE			RTIB			RANK			RHEE			RTOE			*39			*40			
		X1	Y1	Z1	X2	Y2	Z2	X3	Y3	Z3	X4	Y4	Z4	X5	Y5	Z5	X6	Y6	Z6	X7	Y7	Z7	X8	Y8	Z8	X9	Y9	Z9	X10	Y10	Z10	X11	Y11	Z11	X12	Y12	Z12	X13	Y13	Z13	X14	Y14	Z14	X15	Y15	Z15	X16	Y16	Z16	X17	Y17	Z17	X18	Y18	Z18	X19	Y19	Z19	X20	Y20	Z20	X21	Y21	Z21	X22	Y22	Z22	X23	Y23	Z23	X24	Y24	Z24	X25	Y25	Z25	X26	Y26	Z26	X27	Y27	Z27	X28	Y28	Z28	X29	Y29	Z29	X30	Y30	Z30	X31	Y31	Z31	X32	Y32	Z32	X33	Y33	Z33	X34	Y34	Z34	X35	Y35	Z35	X36	Y36	Z36	X37	Y37	Z37	X38	Y38	Z38	X39	Y39	Z39	X40	Y40	Z40	X41	Y41	Z41	

211	2.100	1448.27820	-878.61224	1683.71936	1310.84766	-838.10394	1663.03845	1493.01563	-737.50861	1653.75879	1358.42859	-686.73535	1635.73645	1419.64575	-629.57690	1511.18799	1409.27759	-576.24445	1226.60364	1435.08130	-767.08124	1436.70239	1424.05298	-821.90118	1269.20422	1347.68774	-572.14111	1330.97217	1600.19702	-686.32538	1478.97131	1681.25220	-639.88757	1285.34839	1696.18652	-615.86682	1147.52295	1720.01868	-607.66345	1017.60504	1715.33325	-657.31213	885.02252	1734.32581	-604.61804	894.93530	1745.50073	-614.82800	829.17993	1236.16248	-713.09393	1473.96228	1145.72095	-719.17908	1282.48315	1125.37659	-767.53503	1142.71558	1112.33875	-831.24695	1040.34253	1136.47510	-916.96533	937.76825	1102.82410	-875.56909	917.92535	1101.60181	-932.90442	873.61475	1551.87488	-821.18848	978.36389	1292.66370	-818.92639	954.43622	1470.76038	-607.55872	1008.78137	1357.16565	-602.24060	1007.93683	1629.38318	-828.00305	678.54211	1608.12769	-865.89716	480.22546	1623.12903	-871.43500	286.81293	1610.88538	-949.06659	74.68260	1559.48718	-924.69885	35.48248	1616.52075	-1106.63916	73.27216	1240.11182	-682.35681	655.69940	1282.05212	-629.82227	451.30325	1281.21985	-532.03400	288.47815	1321.19434	-459.43326	108.55202	1380.00574	-416.70682	60.77609	1293.69775	-596.06586	33.07314	1377.20056	-782.32935	1776.04211	-3360.31763	2845.07690	1033.99878 
212	2.110	1451.04956	-886.83105	1682.69092	1313.64734	-846.22650	1662.09558	1495.90417	-745.79681	1652.79175	1361.35242	-694.92035	1634.90881	1422.48938	-637.85925	1510.10974	1411.92822	-585.16626	1225.31873	1437.74927	-775.53290	1435.84045	1426.43799	-830.73364	1268.47632	1349.85718	-581.30176	1329.65356	1602.85510	-694.56641	1477.79749	1683.81311	-647.81378	1284.20850	1698.30945	-623.84003	1146.31458	1721.97510	-615.59454	1016.34186	1717.32129	-665.26447	883.74146	1736.08203	-612.65546	893.68433	1747.36157	-622.70239	827.90466	1238.87585	-721.55457	1473.28723	1148.37488	-726.75909	1282.15955	1128.14905	-774.09277	1141.92432	1114.88635	-837.70660	1039.18433	1139.21509	-922.83331	936.28241	1105.36304	-881.47015	916.66980	1104.45239	-938.48157	871.96246	1553.95972	-831.06067	978.22687	1294.72705	-828.21796	953.77783	1473.68958	-617.22894	1007.64252	1360.22693	-611.35852	1006.88959	1631.48401	-837.97839	677.42334	1609.57617	-874.60120	478.85892	1624.11877	-878.08331	285.19580	1610.96411	-952.81464	71.99370	1559.63025	-928.08417	33.15329	1616.90723	-1110.27759	69.55052	1241.37036	-689.49835	655.49554	1282.49292	-636.20044	451.60245	1281.57874	-535.75519	289.86209	1320.86279	-460.67801	110.91121	1379.70740	-417.62704	63.46368	1293.41931	-596.15771	32.97401	1380.10242	-790.58917	1775.12671	-3356.91748	2845.82715	1034.19189 
213	2.120	1453.91125	-895.11890	1681.60962	1316.51392	-854.36847	1661.12317	1498.85779	-754.07031	1651.75708	1364.35803	-703.04462	1633.93335	1425.29675	-646.11340	1508.81042	1414.72900	-594.17499	1223.94556	1440.52942	-784.09265	1434.95959	1428.90784	-839.71124	1267.73413	1352.98303	-589.39203	1328.60205	1605.59229	-702.92700	1476.60205	1686.24170	-656.02936	1282.99792	1700.53174	-631.97418	1145.04102	1724.00256	-623.80115	1015.02039	1719.32678	-673.64813	882.41791	1738.01721	-620.84406	892.35193	1749.13586	-630.95319	826.52527	1241.84814	-729.69940	1472.70544	1151.05920	-734.74426	1281.73193	1130.68738	-781.03479	1141.24902	1117.62207	-843.74432	1038.12549	1141.89551	-928.49200	934.58478	1107.90161	-887.09454	915.33722	1107.29102	-943.93951	870.33563	1556.10034	-841.18616	978.10992	1296.78113	-836.97803	953.12274	1476.91577	-627.11591	1006.47693	1363.56836	-620.70691	1005.75635	1633.69250	-847.60980	676.05267	1611.12268	-882.88757	477.21381	1625.19519	-884.28735	283.38217	1611.15112	-956.12592	69.31050	1560.53625	-930.66229	32.11012	1617.49512	-1113.42664	65.60178	1242.96582	-696.94684	655.18823	1282.61499	-642.65771	451.58350	1282.01453	-539.77802	291.43765	1320.56543	-462.05441	113.50168	1379.35681	-418.54620	66.70417	1293.18530	-596.39557	33.07437	1383.10437	-798.82574	1774.13379	-3360.24390	2845.15527	1034.09338 
214	2.130	1456.82666	-903.37427	1680.48962	1319.47571	-862.58881	1660.12354	1501.96570	-762.39911	1650.63879	1367.42786	-711.28461	1632.91931	1428.34314	-654.49939	1507.55420	1417.70947	-603.34119	1222.40332	1443.35925	-792.65875	1434.01013	1431.46204	-848.79346	1266.99268	1355.91382	-598.05042	1327.21570	1608.42236	-711.35614	1475.34753	1688.75073	-664.32281	1281.73022	1703.13123	-640.05420	1143.88354	1726.02686	-632.17731	1013.58771	1721.39319	-682.26636	881.10284	1739.75964	-629.42334	890.89709	1750.98816	-639.53479	825.13623	1244.74268	-738.05420	1471.95227	1154.19312	-742.59106	1281.13940	1133.62048	-787.24902	1140.31543	1120.22144	-849.84839	1036.89807	1144.64746	-934.20953	933.03400	1110.37793	-892.76337	914.00696	1110.01685	-949.26477	868.41589	1558.25183	-851.60138	977.93756	1299.41089	-844.70685	951.97351	1480.31274	-637.34106	1005.20471	1367.14331	-630.33978	1004.44452	1635.97095	-856.99078	674.55127	1612.85217	-890.65576	475.36163	1626.19360	-890.04730	281.31598	1611.45093	-959.02301	66.51877	1560.65002	-932.88568	30.81805	1618.25964	-1116.40405	60.75467	1244.23767	-704.52606	655.18610	1283.02539	-649.58868	451.75580	1282.46472	-544.10516	293.08838	1320.19226	-463.62653	116.23524	1379.10388	-419.66986	70.37419	1292.93127	-596.56396	33.02338	1386.16565	-807.08551	1773.09229	-3360.15771	2845.20947	1034.01782 
215	2.140	1459.76367	-911.71588	1679.38770	1322.46814	-870.65253	1659.10779	1505.04944	-770.78040	1649.47095	1370.56934	-719.40857	1631.81018	1431.42749	-662.83356	1506.23083	1420.99084	-612.40350	1220.89868	1446.27588	-801.32684	1433.00330	1434.12793	-858.01843	1266.26953	1358.92773	-606.80981	1325.73511	1611.37000	-719.89526	1474.06677	1691.54675	-672.79437	1280.34766	1705.28687	-648.72479	1142.30090	1728.23230	-640.81879	1012.10144	1723.49561	-691.20258	879.72168	1741.73999	-638.31378	889.43427	1752.77271	-648.45166	823.61084	1248.03491	-745.87732	1471.09668	1156.98975	-750.25146	1280.58691	1136.13098	-794.04108	1139.42578	1122.80310	-855.83630	1035.56274	1147.31628	-939.48480	931.13068	1112.78906	-898.22089	912.56586	1112.80542	-954.50397	866.55432	1560.50195	-862.29669	977.72491	1301.22681	-856.04950	951.88007	1484.09778	-647.73950	1003.82867	1371.00415	-640.05695	1003.07574	1638.39124	-866.15332	672.95807	1615.12769	-897.73230	473.47815	1626.72681	-895.56134	279.20096	1611.92407	-962.01312	65.07333	1560.25940	-935.06775	31.75916	1620.26379	-1120.22876	52.17261	1245.99548	-712.37488	654.95563	1283.42932	-657.04126	451.68033	1282.94348	-548.70154	294.89520	1319.82422	-465.42645	119.32622	1378.57617	-420.99512	74.25394	1292.67065	-596.81952	33.10528	1389.41479	-815.32233	1772.21985	-3360.33350	2845.27563	1033.93420 
